<svg width="256" height="256" viewBox="0 0 256 256" fill="none" xmlns="http://www.w3.org/2000/svg">
  <defs>
    <linearGradient id="brainGrad" x1="0%" y1="0%" x2="100%" y2="100%">
      <stop offset="0%" style="stop-color:#3DDC84;stop-opacity:1" /> <stop offset="100%" style="stop-color:#2A9D8F;stop-opacity:1" />
    </linearGradient>
    
    <linearGradient id="toolGrad" x1="0%" y1="0%" x2="100%" y2="100%">
      <stop offset="0%" style="stop-color:#4285F4;stop-opacity:1" /> <stop offset="100%" style="stop-color:#073042;stop-opacity:1" /> </linearGradient>
  </defs>

  <g id="brain-part">
    <path d="M128 20 L60 200 H100 L128 120" stroke="url(#brainGrad)" stroke-width="16" stroke-linecap="round" stroke-linejoin="round"/>
    
    <circle cx="60" cy="200" r="8" fill="#3DDC84" />
    <circle cx="90" cy="120" r="6" fill="#3DDC84" />
    <circle cx="128" cy="20" r="8" fill="#3DDC84" />
    
    <path d="M80 150 L100 150 M70 180 L90 180 M110 70 L90 90" stroke="#3DDC84" stroke-width="4" stroke-linecap="round"/>
  </g>

  <g id="tools-part">
    <path d="M128 20 L196 200 H156 L128 120" fill="url(#toolGrad)" opacity="0.9"/>
    
    <path d="M140 160 H150 M136 140 H146 M144 180 H154" stroke="white" stroke-width="3" stroke-linecap="round"/>
    
    <circle cx="128" cy="20" r="12" fill="#073042" stroke="white" stroke-width="4"/>
    
    <path d="M80 160 Q128 130 176 160" stroke="#4285F4" stroke-width="4" stroke-dasharray="8 4" stroke-linecap="round" fill="none"/>
  </g>

  </svg>